<?xml version="1.0" encoding="UTF-8"?>
<svg xmlns="http://www.w3.org/2000/svg" xmlns:xlink="http://www.w3.org/1999/xlink" width="113pt" height="113pt" viewBox="0 0 113 113" version="1.1">
<g id="surface1">
<path style=" stroke:none;fill-rule:nonzero;fill:rgb(0%,0%,0%);fill-opacity:1;" d="M 111.667969 52.089844 L 67.871094 8.289062 C 61.515625 1.9375 51.183594 1.9375 44.832031 8.289062 L 1.03125 52.089844 C -0.34375 53.464844 -0.34375 55.695312 1.03125 57.070312 C 2.40625 58.445312 4.636719 58.445312 6.011719 57.070312 L 8.804688 54.277344 L 8.804688 99.050781 C 8.804688 104.640625 13.339844 109.175781 18.929688 109.175781 L 36.539062 109.175781 C 37.753906 109.175781 38.742188 108.1875 38.742188 106.972656 L 38.742188 74.394531 C 38.742188 68.316406 43.667969 63.390625 49.746094 63.390625 L 62.953125 63.390625 C 69.03125 63.390625 73.960938 68.316406 73.960938 74.394531 L 73.960938 106.972656 C 73.960938 108.1875 74.945312 109.175781 76.160156 109.175781 L 93.769531 109.175781 C 99.363281 109.175781 103.894531 104.640625 103.894531 99.050781 L 103.894531 54.277344 L 106.6875 57.070312 C 107.375 57.757812 108.277344 58.101562 109.175781 58.101562 C 110.078125 58.101562 110.980469 57.757812 111.667969 57.070312 C 113.042969 55.695312 113.042969 53.464844 111.667969 52.089844 Z M 111.667969 52.089844 "/>
</g>
</svg>
