<?xml version="1.0" encoding="UTF-8"?>
<svg xmlns="http://www.w3.org/2000/svg" xmlns:xlink="http://www.w3.org/1999/xlink" width="113pt" height="113pt" viewBox="0 0 113 113" version="1.1">
<g id="surface1">
<path style=" stroke:none;fill-rule:nonzero;fill:rgb(0%,0%,0%);fill-opacity:1;" d="M 100.625 0 L 12.074219 0 C 5.40625 0 0 5.40625 0 12.074219 L 0 100.625 C 0 107.292969 5.40625 112.699219 12.074219 112.699219 L 100.625 112.699219 C 107.292969 112.699219 112.699219 107.292969 112.699219 100.625 L 112.699219 12.074219 C 112.699219 5.40625 107.292969 0 100.625 0 Z M 36.226562 88.546875 L 24.152344 88.546875 C 21.925781 88.546875 20.125 86.746094 20.125 84.523438 C 20.125 82.304688 21.925781 80.5 24.152344 80.5 L 36.226562 80.5 C 38.445312 80.5 40.25 82.304688 40.25 84.523438 C 40.25 86.746094 38.445312 88.546875 36.226562 88.546875 Z M 36.226562 60.375 L 24.152344 60.375 C 21.925781 60.375 20.125 58.570312 20.125 56.351562 C 20.125 54.128906 21.925781 52.324219 24.152344 52.324219 L 36.226562 52.324219 C 38.445312 52.324219 40.25 54.128906 40.25 56.351562 C 40.25 58.570312 38.445312 60.375 36.226562 60.375 Z M 36.226562 32.199219 L 24.152344 32.199219 C 21.925781 32.199219 20.125 30.398438 20.125 28.175781 C 20.125 25.949219 21.925781 24.152344 24.152344 24.152344 L 36.226562 24.152344 C 38.445312 24.152344 40.25 25.953125 40.25 28.175781 C 40.25 30.398438 38.445312 32.199219 36.226562 32.199219 Z M 88.546875 88.546875 L 52.324219 88.546875 C 50.101562 88.546875 48.300781 86.746094 48.300781 84.523438 C 48.300781 82.304688 50.101562 80.5 52.324219 80.5 L 88.546875 80.5 C 90.773438 80.5 92.574219 82.304688 92.574219 84.523438 C 92.574219 86.746094 90.773438 88.546875 88.546875 88.546875 Z M 88.546875 60.375 L 52.324219 60.375 C 50.101562 60.375 48.300781 58.570312 48.300781 56.351562 C 48.300781 54.128906 50.101562 52.324219 52.324219 52.324219 L 88.546875 52.324219 C 90.773438 52.324219 92.574219 54.128906 92.574219 56.351562 C 92.574219 58.570312 90.773438 60.375 88.546875 60.375 Z M 88.546875 32.199219 L 52.324219 32.199219 C 50.101562 32.199219 48.300781 30.398438 48.300781 28.175781 C 48.300781 25.949219 50.101562 24.148438 52.324219 24.148438 L 88.546875 24.148438 C 90.773438 24.148438 92.574219 25.949219 92.574219 28.175781 C 92.574219 30.398438 90.773438 32.199219 88.546875 32.199219 Z M 88.546875 32.199219 "/>
</g>
</svg>
