<?xml version="1.0" encoding="UTF-8"?>
<svg xmlns="http://www.w3.org/2000/svg" xmlns:xlink="http://www.w3.org/1999/xlink" width="10pt" height="10pt" viewBox="0 0 10 10" version="1.1">
<g id="surface1">
<path style=" stroke:none;fill-rule:nonzero;fill:rgb(0%,0%,0%);fill-opacity:1;" d="M 8.742188 1.242188 L 4.710938 1.242188 C 4.890625 1.621094 4.996094 2.042969 4.996094 2.492188 C 4.996094 2.9375 4.890625 3.359375 4.710938 3.738281 L 8.742188 3.738281 C 9.078125 3.738281 9.390625 3.609375 9.625 3.375 C 9.863281 3.140625 9.992188 2.824219 9.992188 2.492188 C 9.992188 1.804688 9.429688 1.242188 8.742188 1.242188 Z M 8.742188 1.242188 "/>
<path style=" stroke:none;fill-rule:nonzero;fill:rgb(0%,0%,0%);fill-opacity:1;" d="M 4.164062 2.492188 C 4.164062 3.640625 3.230469 4.574219 2.082031 4.574219 C 0.933594 4.574219 0 3.640625 0 2.492188 C 0 1.34375 0.933594 0.410156 2.082031 0.410156 C 3.230469 0.410156 4.164062 1.34375 4.164062 2.492188 Z M 4.164062 2.492188 "/>
<path style=" stroke:none;fill-rule:nonzero;fill:rgb(0%,0%,0%);fill-opacity:1;" d="M 4.996094 7.488281 C 4.996094 7.039062 5.097656 6.617188 5.28125 6.238281 L 1.25 6.238281 C 0.558594 6.238281 0 6.796875 0 7.488281 C 0 7.820312 0.128906 8.136719 0.363281 8.371094 C 0.601562 8.605469 0.914062 8.734375 1.25 8.734375 L 5.28125 8.734375 C 5.097656 8.355469 4.996094 7.933594 4.996094 7.488281 Z M 4.996094 7.488281 "/>
<path style=" stroke:none;fill-rule:nonzero;fill:rgb(0%,0%,0%);fill-opacity:1;" d="M 9.992188 7.488281 C 9.992188 8.636719 9.058594 9.566406 7.910156 9.566406 C 6.761719 9.566406 5.828125 8.636719 5.828125 7.488281 C 5.828125 6.335938 6.761719 5.40625 7.910156 5.40625 C 9.058594 5.40625 9.992188 6.335938 9.992188 7.488281 Z M 9.992188 7.488281 "/>
</g>
</svg>
